<svg width="66" height="81" fill="none" xmlns="http://www.w3.org/2000/svg"><path d="M52.652 7.487c-5.785-3.374-12.799-2.542-18.39-6.403-.696-.465-1.532.52-.843 1.034 6.087 4.621 14.21 3.678 20.23 8.542 10.076 8.115 11.028 22.919 7.415 34.333C54.84 64.667 27.532 68.775 8.252 69.37c4.595-2.933 9.215-5.86 13.743-8.92 1.58-1.12-.114-3.45-1.75-2.465-6.478 3.963-12.827 8.139-19.213 12.232a1.575 1.575 0 00-.635 1.435 1.612 1.612 0 00.907 1.293 104.395 104.395 0 0014.466 7.421 1.581 1.581 0 001.206.044 1.558 1.558 0 001.014-1.424 1.592 1.592 0 00-.932-1.495c-2.704-1.68-5.412-3.335-8.13-5.004 20.423-.75 48.422-5.348 54.834-26.705 2.75-9.189 2.625-20.24-2.118-28.845a25.102 25.102 0 00-8.992-9.45z" fill="url(#paint0_linear_450_1802)"/><defs><linearGradient id="paint0_linear_450_1802" x1="-1.5" y1="73" x2="11.267" y2="-20.987" gradientUnits="userSpaceOnUse"><stop stop-color="#0094A7"/><stop offset="1" stop-color="#fff" stop-opacity="0"/></linearGradient></defs></svg>