<svg width="141" height="26" fill="none" xmlns="http://www.w3.org/2000/svg"><g clip-path="url(#clip0_450_2353)"><path d="M121.457 20.798h2.6v-2.39l-2.6 2.39zm1.781-2.694l-6.564.02c.025-.92 1.521-1.693 3.28-2.697 1.931-1.102 3.994-2.528 3.994-4.93 0-2.902-2.408-4.201-5.388-4.201a8.86 8.86 0 00-5.085 1.504v2.926c1.564-1.146 3.295-1.692 4.78-1.692 1.486 0 2.449.541 2.449 1.585 0 1.36-1.326 1.926-2.864 2.78-2.175 1.236-4.866 2.572-4.866 5.997v1.402h6.412l3.852-2.694z" fill="#fff"/><path d="M83.589 6.387l-10.493 9.645-.573-1.902-5.069 3.545-4.156 2.91c2.003 2.465 4.923 4.086 8.145 4.52 3.222.435 6.493-.352 9.123-2.193 2.63-1.842 4.414-4.594 4.975-7.677.562-3.082-.144-6.254-1.967-8.846l.015-.002zm-1.865 6.68l-3.934 2.64 3.987-3.73 1.863 2.507-1.916-1.417zM69.41 14.633l-1.83-1.283-4.886 3.506 4.904-4.876 1.977 2.492 4.088-3.98.705 2.346 9.22-6.451a12.331 12.331 0 00-3.571-3.367 12.84 12.84 0 00-4.655-1.757 13.03 13.03 0 00-4.998.131 12.784 12.784 0 00-4.548 1.999A12.256 12.256 0 0062.44 6.94a11.773 11.773 0 00-1.666 4.535 11.625 11.625 0 00.306 4.801 11.897 11.897 0 002.232 4.305l6.098-5.95z" fill="#FB0"/><path d="M96.449 6.827l1.039 3.452 5.862-4.103h-6.901v.658-.007zm9.6 6.242c1.344-.44 2.307-1.488 2.307-3.195 0-1.967-1.247-3.12-3.341-3.528l-2.61 2.397h.405c1.437 0 2.307.522 2.307 1.673 0 1.15-.887 1.672-2.129 1.672h-3.282v-.863l-3.26 3v6.582h6.539c2.649 0 5.971-.775 5.971-4.096 0-2.16-1.411-3.226-2.909-3.642h.002zm-3.107 5.183h-3.26V14.49h3.433c1.302 0 2.585.334 2.585 1.877 0 1.592-1.303 1.885-2.758 1.885zM128.49 6.827l1.039 3.452 5.875-4.1h-6.919v.658l.005-.01zm9.6 6.242c1.344-.44 2.307-1.488 2.307-3.195 0-1.967-1.247-3.12-3.341-3.528l-2.61 2.397h.405c1.437 0 2.307.522 2.307 1.673 0 1.15-.887 1.672-2.129 1.672h-3.282v-.863l-3.26 3v6.582h6.539c2.654 0 5.976-.775 5.976-4.096 0-2.16-1.411-3.226-2.909-3.642h-.003zm-3.107 5.183h-3.259V14.49h3.426c1.303 0 2.586.334 2.586 1.877.005 1.592-1.298 1.885-2.753 1.885z" fill="#fff"/></g><path d="M5.287 8.731c-.473 0-.898.082-1.277.247-.375.16-.696.394-.961.703a3.184 3.184 0 00-.604 1.107c-.14.434-.21.922-.21 1.465 0 .719.11 1.344.333 1.875.227.527.563.935 1.008 1.224.45.29 1.01.434 1.682.434.383 0 .742-.031 1.078-.094.34-.066.67-.148.99-.246v.868a5.06 5.06 0 01-.984.257 7.394 7.394 0 01-1.225.088c-.87 0-1.6-.18-2.185-.539a3.372 3.372 0 01-1.313-1.535c-.289-.66-.433-1.44-.433-2.338 0-.648.09-1.24.27-1.775.183-.54.448-1.004.796-1.395.352-.39.781-.691 1.289-.902.512-.215 1.098-.322 1.758-.322.433 0 .851.043 1.254.128a4.64 4.64 0 011.09.37l-.399.843a5.946 5.946 0 00-.902-.322 3.783 3.783 0 00-1.055-.14zm8.455 1.39v5.595h.92v3.047h-.943v-2.221H9.172v2.22H8.24v-3.046h.504a7.744 7.744 0 00.914-1.67c.242-.606.426-1.24.551-1.904a11.7 11.7 0 00.2-2.022h3.333zm-.943.773h-1.524c-.035.57-.119 1.15-.252 1.74-.128.59-.3 1.152-.515 1.687a6.704 6.704 0 01-.75 1.395h3.04v-4.822zm5.613-.891c.547 0 1.016.121 1.406.363.391.242.69.582.897 1.02.207.433.31.941.31 1.523v.604H16.59c.012.754.2 1.328.562 1.722.364.395.875.592 1.535.592.407 0 .766-.037 1.079-.111.312-.074.636-.184.972-.328v.855a4.74 4.74 0 01-.966.317c-.317.066-.692.1-1.125.1-.618 0-1.157-.126-1.618-.376a2.623 2.623 0 01-1.066-1.113c-.254-.488-.381-1.086-.381-1.793 0-.691.115-1.29.346-1.793.234-.508.562-.899.984-1.172.426-.273.926-.41 1.5-.41zm-.012.797c-.52 0-.933.17-1.242.51-.308.34-.492.814-.55 1.423h3.398a2.744 2.744 0 00-.182-1.007 1.415 1.415 0 00-.521-.68c-.235-.164-.535-.246-.903-.246zm9.094 5.742h-.99v-5.607h-1.951a30.008 30.008 0 01-.3 2.601c-.116.719-.265 1.307-.444 1.764-.176.453-.391.787-.645 1.002a1.35 1.35 0 01-.896.316c-.106 0-.206-.006-.3-.017a.942.942 0 01-.24-.059v-.738a1.036 1.036 0 00.34.047.667.667 0 00.48-.217c.15-.149.282-.371.4-.668a6.54 6.54 0 00.322-1.125c.093-.457.175-.994.246-1.611.074-.622.138-1.325.193-2.11h3.785v6.422zm4.453-6.527c.766 0 1.334.171 1.705.515s.557.893.557 1.647v4.365H33.5l-.188-.95h-.046a3.57 3.57 0 01-.563.593 2.091 2.091 0 01-.68.357 3.227 3.227 0 01-.937.117c-.39 0-.738-.068-1.043-.205-.3-.137-.54-.344-.715-.621-.172-.277-.258-.629-.258-1.055 0-.64.254-1.133.762-1.476.508-.344 1.281-.531 2.32-.563l1.108-.047V12.3c0-.555-.12-.944-.358-1.166-.238-.223-.574-.334-1.008-.334-.335 0-.656.049-.96.146a6.567 6.567 0 00-.868.346l-.298-.738a5.35 5.35 0 01.996-.381 4.35 4.35 0 011.183-.158zm1.301 3.363l-.978.04c-.801.032-1.366.163-1.694.394-.328.23-.492.556-.492.978 0 .367.111.639.334.815.223.175.518.263.885.263.57 0 1.037-.158 1.4-.474.363-.317.545-.792.545-1.424v-.592zm3.943-3.258v2.695h3.58V10.12h.973v6.422h-.972v-2.9h-3.58v2.9h-.98V10.12h.98zm12.153 3.2c0 .527-.069.997-.205 1.411a2.893 2.893 0 01-.592 1.05 2.58 2.58 0 01-.938.655 3.244 3.244 0 01-1.236.223 3.07 3.07 0 01-1.183-.223 2.67 2.67 0 01-.926-.656 3.031 3.031 0 01-.604-1.049 4.378 4.378 0 01-.21-1.412c0-.703.118-1.3.357-1.793a2.547 2.547 0 011.02-1.13c.445-.262.974-.393 1.587-.393.586 0 1.098.13 1.535.393.442.261.783.64 1.026 1.136.246.492.369 1.088.369 1.787zm-4.887 0c0 .515.068.962.205 1.341.137.379.348.672.633.879.285.207.652.31 1.102.31.445 0 .81-.103 1.095-.31.29-.207.502-.5.639-.879s.205-.826.205-1.342c0-.511-.068-.953-.205-1.324-.137-.375-.348-.664-.633-.867-.285-.203-.654-.305-1.107-.305-.668 0-1.159.22-1.471.662-.309.442-.463 1.053-.463 1.834z" fill="#fff"/><defs><clipPath id="clip0_450_2353"><path fill="#fff" transform="translate(60 .542)" d="M0 0h81v25H0z"/></clipPath></defs></svg>