<svg width="241" height="62" fill="none" xmlns="http://www.w3.org/2000/svg"><path d="M210.267 61.716H30.751a30.354 30.354 0 01-21.544-8.993A30.852 30.852 0 01.273 31.01 30.853 30.853 0 019.2 9.284a30.354 30.354 0 0121.551-9h179.516a30.356 30.356 0 0121.539 9.007 30.854 30.854 0 018.919 21.719 30.833 30.833 0 01-8.921 21.712 30.334 30.334 0 01-21.537 8.994z" fill="#04818E"/><path style="mix-blend-mode:color-burn" d="M210.267 61.716H30.751a30.354 30.354 0 01-21.544-8.993A30.852 30.852 0 01.273 31.01 30.853 30.853 0 019.2 9.284a30.354 30.354 0 0121.551-9h179.516a30.356 30.356 0 0121.539 9.007 30.854 30.854 0 018.919 21.719 30.833 30.833 0 01-8.921 21.712 30.334 30.334 0 01-21.537 8.994z" fill="url(#paint0_linear_12_750)"/><path style="mix-blend-mode:color-dodge" d="M210.267 61.716H30.751a30.354 30.354 0 01-21.544-8.993A30.852 30.852 0 01.273 31.01 30.853 30.853 0 019.2 9.284a30.354 30.354 0 0121.551-9h179.516a30.356 30.356 0 0121.539 9.007 30.854 30.854 0 018.919 21.719 30.833 30.833 0 01-8.921 21.712 30.334 30.334 0 01-21.537 8.994z" fill="url(#paint1_radial_12_750)"/><g style="mix-blend-mode:screen" filter="url(#filter0_f_12_750)"><path d="M212.816 4.67H28.204c-5.672 0-10.27 4.636-10.27 10.355v1.225c0 5.718 4.598 10.354 10.27 10.354h184.612c5.672 0 10.27-4.636 10.27-10.354v-1.225c0-5.719-4.598-10.354-10.27-10.354z" fill="url(#paint2_linear_12_750)" style="mix-blend-mode:screen"/></g><defs><linearGradient id="paint0_linear_12_750" x1="120" y1="0" x2="120.499" y2="64.324" gradientUnits="userSpaceOnUse"><stop stop-color="#fff"/><stop offset=".2" stop-color="#FCFCFC"/><stop offset=".37" stop-color="#F1F1F1"/><stop offset=".53" stop-color="#E0E0E0"/><stop offset=".68" stop-color="#C8C8C8"/><stop offset=".82" stop-color="#ABABAB"/><stop offset="1" stop-color="#fff"/></linearGradient><linearGradient id="paint2_linear_12_750" x1="120.5" y1="38.795" x2="120.5" y2="1.253" gradientUnits="userSpaceOnUse"><stop/><stop offset=".14" stop-color="#020304"/><stop offset=".27" stop-color="#080C0F"/><stop offset=".39" stop-color="#121C22"/><stop offset=".51" stop-color="#21323D"/><stop offset=".63" stop-color="#334E5F"/><stop offset=".75" stop-color="#4A718A"/><stop offset=".87" stop-color="#659BBC"/><stop offset=".98" stop-color="#83C9F4"/><stop offset="1" stop-color="#89D2FF"/></linearGradient><radialGradient id="paint1_radial_12_750" cx="0" cy="0" r="1" gradientUnits="userSpaceOnUse" gradientTransform="rotate(3.257 -1341.69 2017.966) scale(124.467 125.479)"><stop offset=".17" stop-color="#858585"/><stop offset=".36" stop-color="#575757"/><stop offset=".55" stop-color="#313131"/><stop offset=".73" stop-color="#161616"/><stop offset=".88" stop-color="#060606"/><stop offset="1"/></radialGradient><filter id="filter0_f_12_750" x="13.934" y=".671" width="213.152" height="29.933" filterUnits="userSpaceOnUse" color-interpolation-filters="sRGB"><feFlood flood-opacity="0" result="BackgroundImageFix"/><feBlend in="SourceGraphic" in2="BackgroundImageFix" result="shape"/><feGaussianBlur stdDeviation="2" result="effect1_foregroundBlur_12_750"/></filter></defs></svg>