<svg width="1444" height="578" fill="none" xmlns="http://www.w3.org/2000/svg"><path fill-rule="evenodd" clip-rule="evenodd" d="M494.684.542a20.001 20.001 0 00-14.986 6.755l-3.852 4.359a50.001 50.001 0 01-37.464 16.886H118.669c-27.614 0-50 22.386-50 50v58c0 27.615 22.385 50 50 50h91.672c43.076 0 65.991 50.838 37.463 83.114l-17.135 19.386L5.054 544.297c-11.411 12.91-2.245 33.245 14.985 33.245H1032.49c6.4 0 12.41-3.058 16.17-8.229l390.88-537c9.62-13.219.18-31.77-16.17-31.77H494.684z" fill="#000" fill-opacity=".2"/></svg>