<svg width="1509" height="162" fill="none" xmlns="http://www.w3.org/2000/svg"><path d="M.81 158.581l73.7-155.1h38.499l74.14 155.1h-47.52l-18.48-42.02 17.82 13.2h-89.98l17.6-13.2-18.48 42.02H.81zm92.84-106.7l-22.66 54.34-6.6-12.32h59.179l-5.94 12.32-22.88-54.34h-1.1zm176.168 109.34c-18.48 0-34.1-3.3-46.86-9.9-12.614-6.747-22.22-16.06-28.82-27.94-6.454-12.027-9.68-25.813-9.68-41.36 0-16.427 3.593-30.727 10.78-42.9 7.333-12.173 17.82-21.56 31.46-28.16 13.64-6.747 29.993-10.12 49.06-10.12 11.146 0 21.12 1.247 29.92 3.74 8.946 2.347 16.5 5.793 22.66 10.34l-14.08 36.3c-4.547-2.64-8.8-4.693-12.76-6.16a54.76 54.76 0 00-11.66-3.08c-3.96-.587-8.507-.88-13.64-.88-14.374 0-25.007 3.447-31.9 10.34-6.747 6.893-10.12 17.087-10.12 30.58 0 13.2 3.006 23.173 9.02 29.92 6.16 6.6 15.913 9.9 29.26 9.9 3.813 0 8.14-.367 12.98-1.1 4.986-.733 10.12-1.833 15.4-3.3l-8.14 15.84v-31.46h-29.7v-32.56h68.2v79.42c-8.947 4.107-18.7 7.26-29.26 9.46a167.92 167.92 0 01-32.12 3.08zm155.949 0c-23.907 0-41.874-5.793-53.9-17.38-12.027-11.733-18.04-29.333-18.04-52.8V3.481h47.52v88.22c0 9.827 1.906 17.307 5.72 22.44 3.96 5.133 10.193 7.7 18.7 7.7 8.506 0 14.666-2.567 18.48-7.7 3.96-5.133 5.94-12.613 5.94-22.44V3.481h46.64v87.56c0 23.467-5.867 41.067-17.6 52.8-11.587 11.587-29.407 17.38-53.46 17.38zm74.124-2.64l73.7-155.1h38.5l74.14 155.1h-47.52l-18.48-42.02 17.82 13.2h-89.98l17.6-13.2-18.48 42.02h-47.3zm92.84-106.7l-22.66 54.34-6.6-12.32h59.18l-5.94 12.32-22.88-54.34h-1.1zm98.845 106.7V3.481h47.52v155.1h-47.52zm73.047 0V3.481h34.76l71.94 86.9h-6.82v-86.9h44.22v155.1h-34.76l-71.72-86.9h6.82v86.9h-44.44zm222.307 0l-71.28-155.1h51.04l47.08 110.88h-13.86l46.86-110.88h49.06l-71.06 155.1h-37.84zm115.64 0V3.481h115.06v36.08h-69.74v22.22h64.46v36.08h-64.46v24.64h69.74v36.08h-115.06zm192.42 2.64c-12.61 0-24.78-1.467-36.52-4.4-11.58-2.933-21.19-6.893-28.82-11.88l12.98-36.52c4.7 2.787 9.98 5.28 15.84 7.48 5.87 2.053 11.96 3.74 18.26 5.06 6.31 1.173 12.54 1.76 18.7 1.76 8.66 0 14.45-.88 17.38-2.64 2.94-1.907 4.4-4.18 4.4-6.82 0-2.493-.95-4.473-2.86-5.94-1.76-1.467-5.5-2.787-11.22-3.96l-27.94-5.72c-14.22-2.933-24.93-8.14-32.12-15.62-7.04-7.48-10.56-17.16-10.56-29.04 0-10.56 2.86-19.727 8.58-27.5 5.72-7.773 13.79-13.787 24.2-18.04 10.42-4.4 22.59-6.6 36.52-6.6 11 0 21.42 1.467 31.24 4.4 9.83 2.933 17.82 6.893 23.98 11.88l-12.98 34.32c-5.57-3.813-12.02-6.747-19.36-8.8-7.18-2.2-15.18-3.3-23.98-3.3-7.33 0-12.83.88-16.5 2.64-3.52 1.76-5.28 4.327-5.28 7.7 0 2.053 1.03 3.96 3.08 5.72 2.06 1.76 6.02 3.227 11.88 4.4l27.5 5.5c13.94 2.787 24.42 7.92 31.46 15.4 7.19 7.48 10.78 17.087 10.78 28.82 0 10.413-2.86 19.507-8.58 27.28-5.72 7.773-13.71 13.787-23.98 18.04-10.26 4.253-22.29 6.38-36.08 6.38zm121.42-2.64V41.761h-44.88V3.481h137.28v38.28h-44.88v116.82h-47.52z" fill="#fff" fill-opacity=".05"/></svg>